<svg width="500" height="500" viewBox="0 0 500 500" fill="none" xmlns="http://www.w3.org/2000/svg">
<path d="M211.668 170.13L366.022 55.2175V86.4662C366.022 119.06 352.955 150.294 329.744 173.177L207.933 293.273C169.204 260.613 171.031 200.383 211.668 170.13Z" fill="white"/>
<path d="M125 54H367.318L319.9 93.9208C298.214 112.178 270.777 122.19 242.429 122.19H197.324C158.966 122.19 127.255 92.292 125 54Z" fill="white"/>
<path d="M230.379 280.386V280.386C271.59 263.13 318.988 282.549 336.244 323.759L358.377 376.616C367.005 397.221 357.296 420.92 336.69 429.548V429.548C316.085 438.176 292.386 428.467 283.758 407.862L230.379 280.386Z" fill="white"/>
</svg>
